<svg xmlns="http://www.w3.org/2000/svg" width="1440" height="360" viewBox="0 0 1440 360" role="img" aria-labelledby="title desc">
  <title id="title">DNS Threat Intelligence Dataset</title>
  <desc id="desc">Infrastructure-oriented banner showing DNS intelligence pipeline nodes and dataset outputs.</desc>
  <defs>
    <linearGradient id="bg" x1="0" y1="0" x2="1" y2="1">
      <stop offset="0%" stop-color="#0d1117"/>
      <stop offset="55%" stop-color="#111827"/>
      <stop offset="100%" stop-color="#102a43"/>
    </linearGradient>
    <linearGradient id="line" x1="0" y1="0" x2="1" y2="0">
      <stop offset="0%" stop-color="#57d68d"/>
      <stop offset="50%" stop-color="#58a6ff"/>
      <stop offset="100%" stop-color="#f2cc60"/>
    </linearGradient>
    <filter id="soft" x="-20%" y="-20%" width="140%" height="140%">
      <feGaussianBlur stdDeviation="6"/>
    </filter>
  </defs>
  <rect width="1440" height="360" fill="url(#bg)"/>
  <g opacity="0.22">
    <path d="M0 305 C180 250 310 330 490 276 C690 216 860 292 1040 224 C1200 164 1300 206 1440 156" fill="none" stroke="#58a6ff" stroke-width="2"/>
    <path d="M0 92 C210 138 320 68 500 112 C710 164 870 80 1054 122 C1226 160 1320 104 1440 80" fill="none" stroke="#57d68d" stroke-width="2"/>
  </g>
  <g opacity="0.3" stroke="#334155" stroke-width="1">
    <path d="M180 188 L348 148 L516 190 L684 136 L852 188 L1020 148 L1188 190"/>
    <path d="M180 188 L516 190 L852 188 L1188 190"/>
  </g>
  <g>
    <circle cx="180" cy="188" r="44" fill="#111827" stroke="#57d68d" stroke-width="2"/>
    <circle cx="348" cy="148" r="34" fill="#111827" stroke="#58a6ff" stroke-width="2"/>
    <circle cx="516" cy="190" r="38" fill="#111827" stroke="#f2cc60" stroke-width="2"/>
    <circle cx="684" cy="136" r="30" fill="#111827" stroke="#57d68d" stroke-width="2"/>
    <circle cx="852" cy="188" r="38" fill="#111827" stroke="#58a6ff" stroke-width="2"/>
    <circle cx="1020" cy="148" r="34" fill="#111827" stroke="#f2cc60" stroke-width="2"/>
    <circle cx="1188" cy="190" r="44" fill="#111827" stroke="#57d68d" stroke-width="2"/>
  </g>
  <g font-family="ui-monospace, SFMono-Regular, Menlo, Consolas, monospace" font-size="15" fill="#c9d1d9" text-anchor="middle">
    <text x="180" y="194">DNS</text>
    <text x="348" y="154">URL</text>
    <text x="516" y="196">ASN</text>
    <text x="684" y="142">CT</text>
    <text x="852" y="194">DGA</text>
    <text x="1020" y="154">FLUX</text>
    <text x="1188" y="196">EXPORT</text>
  </g>
  <g filter="url(#soft)" opacity="0.34">
    <rect x="905" y="248" width="380" height="38" rx="19" fill="url(#line)"/>
  </g>
  <text x="90" y="96" font-family="Inter, ui-sans-serif, system-ui, -apple-system, BlinkMacSystemFont, Segoe UI, sans-serif" font-size="42" font-weight="700" fill="#f8fafc">
    DNS Threat Intelligence Dataset
  </text>
  <text x="92" y="136" font-family="Inter, ui-sans-serif, system-ui, -apple-system, BlinkMacSystemFont, Segoe UI, sans-serif" font-size="18" fill="#cbd5e1">
    public indicators · DNS infrastructure context · scoring · releases · operational artifacts
  </text>
  <g font-family="ui-monospace, SFMono-Regular, Menlo, Consolas, monospace" font-size="14">
    <rect x="92" y="255" width="220" height="36" rx="6" fill="#0f172a" stroke="#243244"/>
    <text x="112" y="278" fill="#57d68d">adguard-dns-filter.txt</text>
    <rect x="326" y="255" width="156" height="36" rx="6" fill="#0f172a" stroke="#243244"/>
    <text x="346" y="278" fill="#58a6ff">domains.jsonl</text>
    <rect x="496" y="255" width="178" height="36" rx="6" fill="#0f172a" stroke="#243244"/>
    <text x="516" y="278" fill="#f2cc60">dataset-stats.json</text>
  </g>
</svg>
